<svg width="98" height="42" viewBox="0 0 98 42" fill="none" xmlns="http://www.w3.org/2000/svg">
<g id="Layer_1" clip-path="url(#clip0_221_1645)">
<path id="Vector" d="M95.5591 8.37236L82.5047 0.417562C81.5762 -0.147409 80.0704 -0.147409 79.142 0.417562L66.0762 8.37236C65.1591 8.93734 64.4005 10.282 64.4005 11.3667V22.813H69.688V13.0955C69.688 12.5532 70.0616 11.8865 70.5258 11.604L79.9911 5.84129C80.4554 5.5588 81.2139 5.5588 81.6668 5.84129L91.1208 11.604C91.5851 11.8865 91.9587 12.5645 91.9587 13.0955V29.717H97.2461V11.3667C97.2461 10.282 96.4875 8.93734 95.5705 8.37236M71.692 40.3159C71.1485 40.3159 70.8428 40.1464 70.6617 39.9091C70.3786 39.5814 70.2314 39.0051 70.2314 37.7509C70.2314 36.4176 70.356 35.7735 70.5937 35.4345C70.7862 35.152 71.1372 34.9486 71.8165 34.9486C72.4166 34.9486 73.0054 35.1181 73.4809 35.5136L74.5339 34.2142C73.8319 33.491 72.8469 33.2876 71.8845 33.2876C70.6504 33.2876 69.8352 33.6266 69.2917 34.2029C68.4765 35.0277 68.2614 36.3159 68.2614 37.7283C68.2614 39.0164 68.4538 40.3272 69.2804 41.1407C69.7785 41.6379 70.5145 41.9656 71.6467 41.9656C72.9148 41.9656 73.8658 41.5475 74.6697 40.6661L73.5262 39.4797C73.028 40.0108 72.4166 40.3272 71.7033 40.3272M64.4798 39.2424L61.4794 33.4232H59.0225V41.8187H60.868L60.8001 36.0108L63.8231 41.8187H66.2687V33.4232H64.4232L64.4798 39.2424ZM54.437 38.6548L53.4067 35.3441L52.365 38.6548H54.437ZM54.5842 33.4232L57.3921 41.8187H55.3541L54.8559 40.1916H51.9574L51.4366 41.8187H49.4779L52.2745 33.4232H54.5729H54.5842ZM93.9514 38.6096H95.4912V40.2368C95.1289 40.3498 94.642 40.395 94.1778 40.395C93.4532 40.395 93.0456 40.2707 92.7965 39.9995C92.4682 39.6718 92.3436 39.1859 92.3436 37.5927C92.3436 36.2481 92.4568 35.7057 92.7512 35.378C93.0003 35.1068 93.3739 34.9486 94.1212 34.9486C94.9138 34.9486 95.5591 35.1181 96.0686 35.5136L97.1669 34.169C96.4649 33.5249 95.4459 33.2876 94.2571 33.2876C92.8644 33.2876 91.9813 33.6266 91.3926 34.1803C90.5547 34.9825 90.3396 36.1916 90.3396 37.7057C90.3396 39.0503 90.4981 40.2142 91.3473 41.0277C91.97 41.604 92.8644 41.9204 94.2797 41.9204C95.5025 41.9204 96.4989 41.6831 97.2688 41.3893V37.0503H93.974V38.5983L93.9514 38.6096ZM45.6283 36.7452L44.1565 33.4232H41.96L44.6546 38.6774V41.83H46.5681V38.6774L49.3194 33.4232H47.1455L45.6283 36.7452ZM76.6285 41.8187H78.5532V33.4232H76.6285V41.8187ZM86.6259 39.2424L83.6142 33.4232H81.1573V41.8187H83.0028L82.9462 36.0108L85.9693 41.8187H88.4148V33.4232H86.5693L86.6373 39.2424H86.6259ZM29.9358 39.6718L28.0903 33.4232H26.041L28.8149 41.8187H30.9775L33.7854 33.4232H31.7813L29.9471 39.6718H29.9358ZM3.45326 40.3159C2.9098 40.3159 2.6041 40.1464 2.42294 39.9091C2.13989 39.5814 2.00402 39.0051 2.00402 37.7509C2.00402 36.4176 2.12857 35.7735 2.36633 35.4345C2.55881 35.152 2.9098 34.9486 3.58913 34.9486C4.17788 34.9486 4.77796 35.1181 5.24217 35.5136L6.29513 34.2142C5.59315 33.491 4.60812 33.2876 3.64574 33.2876C2.41162 33.2876 1.59643 33.6266 1.04164 34.2029C0.226443 35.0164 0 36.3046 0 37.717C0 39.0051 0.192477 40.3159 1.019 41.1294C1.51717 41.6266 2.25311 41.9543 3.38533 41.9543C4.65341 41.9543 5.60448 41.5362 6.40835 40.6548L5.26481 39.4684C4.76663 39.9995 4.15524 40.3159 3.45326 40.3159ZM13.2356 37.6266C13.2356 36.3611 13.1224 35.6492 12.7488 35.2763C12.4997 35.0277 12.0921 34.8695 11.5033 34.8695C10.9146 34.8695 10.473 35.0277 10.19 35.3215C9.82765 35.7283 9.7031 36.3724 9.7031 37.6379C9.7031 38.9034 9.81632 39.6153 10.19 39.9882C10.439 40.2368 10.8466 40.3837 11.4241 40.3837C12.0468 40.3837 12.477 40.2255 12.7488 39.9091C13.1111 39.5249 13.2356 38.8808 13.2356 37.6266ZM14.3112 34.1803C15.0472 34.9034 15.2849 36.0447 15.2849 37.5475C15.2849 39.0503 15.0472 40.2594 14.2206 41.0729C13.6432 41.6379 12.7601 41.9995 11.4127 41.9995C10.0654 41.9995 9.22757 41.6605 8.63882 41.0729C7.90288 40.3385 7.66511 39.2085 7.66511 37.7057C7.66511 36.2029 7.90288 34.9938 8.72939 34.1916C9.30682 33.6153 10.19 33.2311 11.5373 33.2311C12.8846 33.2311 13.7451 33.5927 14.3112 34.169M22.5198 39.2424L19.5194 33.4232H17.0625V41.8187H18.908L18.8401 36.0108L21.8631 41.8187H24.3087V33.4232H22.4632L22.5198 39.2424ZM37.2273 38.3611H40.2503V36.7565H37.2273V35.0164H40.5447V33.4232H35.3478V41.8187H40.59V40.2368H37.2273V38.3611ZM26.2901 10.7565H28.6677C31.1699 10.7565 32.472 10.2029 32.472 7.36671C32.472 6.29327 32.2795 5.6718 31.8493 5.27632C31.453 4.91474 30.8756 4.82434 29.8905 4.82434H26.2788V10.7565H26.2901ZM26.2901 22.813H21.014V0.338466H30.1962C32.2795 0.338466 34.1024 0.66615 35.4724 1.54751C36.9329 2.49666 37.9406 3.98818 37.9406 6.75654C37.9406 9.85259 36.7065 12.1916 33.7061 12.9825C36.5366 13.5023 37.3858 16.2707 38.0765 22.8243H32.5399C31.7247 16.7678 31.2718 15.1972 29.2565 15.1972H26.3014V22.8243L26.2901 22.813ZM19.0779 22.813L11.8203 11.2198L18.5231 0.338466H12.4997L7.25751 8.84694H5.27613V0.338466H0V22.813H5.27613V13.7848H7.23487L12.7941 22.813H19.0779ZM49.342 10.0108H57.7997V21.6718C55.807 22.4854 53.2708 23.1407 50.1233 23.1407C46.4436 23.1407 44.1338 22.2594 42.5374 20.7C40.3522 18.587 39.9673 15.4232 39.9673 11.8752C39.9673 7.77349 40.5221 4.50796 42.6619 2.42886C44.2018 0.926037 46.4775 -0.000516747 50.0893 -0.000516747C53.1463 -0.000516747 55.7843 0.65485 57.6072 2.34977L54.5842 6.06728C53.384 5.06163 51.7536 4.56445 49.8289 4.56445C47.9041 4.56445 47.0549 4.98253 46.4775 5.6718C45.7642 6.51926 45.5038 7.92039 45.5038 11.5362C45.5038 15.604 45.8321 17.039 46.5794 17.8526C47.2021 18.5419 48.1758 18.8582 49.8968 18.8582C51.0064 18.8582 52.2065 18.7339 53.0557 18.4628V14.2255H49.342V9.98818V10.0108Z" fill="#004B8D"/>
<path id="Vector_2" d="M80.8403 14.2485H83.9086V28.7457C83.9086 29.2881 83.4671 29.7288 82.9236 29.7288H0V27.3107H77.5795V14.2598H80.8403V14.2485Z" fill="#13B5EA"/>
</g>
<defs>
<clipPath id="clip0_221_1645">
<rect width="97.2461" height="42" fill="white"/>
</clipPath>
</defs>
</svg>
